<svg xmlns="http://www.w3.org/2000/svg" width="18.109" height="19.393" viewBox="0 0 18.109 19.393"><defs><style>.a{fill:#bf0417;}</style></defs><g transform="translate(-209.125 -93.154)"><g transform="translate(211.174 95.493)"><path class="a" d="M259.858,152.625h-4.1a.441.441,0,0,1-.441-.441V146.4h-4v5.783a.441.441,0,0,1-.441.441h-4.141a.441.441,0,0,1-.441-.441v-9.609a.441.441,0,0,1,.129-.312l6.563-6.563a.441.441,0,0,1,.623,0l6.566,6.509a.441.441,0,0,1,.131.313v9.663A.441.441,0,0,1,259.858,152.625Zm-3.66-.882h3.219V142.7l-6.123-6.07-6.123,6.123v8.985h3.259V145.96a.441.441,0,0,1,.441-.441h4.886a.441.441,0,0,1,.441.441Z" transform="translate(-246.288 -135.571)"/></g><g transform="translate(209.125 93.154)"><path class="a" d="M209.725,102.806a.6.6,0,0,1-.424-1.024l8.453-8.453a.6.6,0,0,1,.846,0l8.457,8.383a.6.6,0,0,1-.845.852L218.179,94.6l-8.031,8.031A.6.6,0,0,1,209.725,102.806Z" transform="translate(-209.125 -93.154)"/></g></g></svg>