<svg xmlns="http://www.w3.org/2000/svg" width="17" height="20" viewBox="0 0 17 20">
  <defs>
    <style>
      .cls-1 {
        fill: #fff;
      }
    </style>
  </defs>
  <g id="Grupo_225" data-name="Grupo 225" transform="translate(-1572.075 650.72)">
    <path id="Trazado_313" data-name="Trazado 313" class="cls-1" d="M1586.075-650.72h-7.534a6.768,6.768,0,0,0-3.78,1,6.018,6.018,0,0,0-2.337,3.039,6.465,6.465,0,0,0-.349,2.122c0,.614,0,1.227,0,1.84v9a3,3,0,0,0,3,3h11a3.009,3.009,0,0,0,3-3v-14A3,3,0,0,0,1586.075-650.72Zm-9.4,1.62v2.98h-2.98A4.615,4.615,0,0,1,1576.675-649.1Zm11,15.38a1.6,1.6,0,0,1-1.6,1.6h-11a1.6,1.6,0,0,1-1.6-1.6v-11h3.4a1.2,1.2,0,0,0,1.2-1.2v-3.4h8a1.6,1.6,0,0,1,1.6,1.6Z"/>
    <path id="Trazado_314" data-name="Trazado 314" class="cls-1" d="M1583.745-639.89l-2.06,2.07v-5.64a.7.7,0,0,0-.7-.7.7.7,0,0,0-.7.7v5.64l-2.06-2.07a.706.706,0,0,0-.99,0,.688.688,0,0,0,0,.99l3.21,3.21a.688.688,0,0,0,.54.26.88.88,0,0,0,.17-.02.74.74,0,0,0,.22-.1c.04-.03.07-.06.11-.09l3.25-3.26a.688.688,0,0,0,0-.99A.706.706,0,0,0,1583.745-639.89Z"/>
  </g>
</svg>
