<svg xmlns="http://www.w3.org/2000/svg" width="24.052" height="24" viewBox="0 0 24.052 24"><defs><style>.a{fill:#29b6f6;}.b{fill:#0277bd;}.c{fill:#0288d1;}</style></defs><g transform="translate(-4.014 -4.05)"><path class="a" d="M39.7,8.337V23.844a1.793,1.793,0,0,1-1.191,1.7L33.2,28.03l.481-6.526V10.676L33.2,4.15l5.305,2.49A1.793,1.793,0,0,1,39.7,8.337Z" transform="translate(-11.63 -0.04)"/><path class="b" d="M7.013,22,22.051,10.637v-5.8a.782.782,0,0,0-1.368-.517L4.4,19.2a1.2,1.2,0,0,0,.064,1.824s.8.741,1.085.947A1.24,1.24,0,0,0,7.013,22Z" transform="translate(0 0)"/><path class="c" d="M7.013,13.955,22.051,25.322v5.8a.782.782,0,0,1-1.368.517L4.4,16.757a1.2,1.2,0,0,1,.064-1.824s.8-.741,1.085-.947A1.24,1.24,0,0,1,7.013,13.955Z" transform="translate(0 -3.858)"/></g></svg>