<svg xmlns="http://www.w3.org/2000/svg" width="32.883" height="32.883" viewBox="0 0 32.883 32.883">
  <defs>
    <style>
      .cls-1 {
        fill: #bf0417;
      }
    </style>
  </defs>
  <path id="icons8-linkedin" class="cls-1" d="M6.654,3A3.653,3.653,0,0,0,3,6.654V32.229a3.653,3.653,0,0,0,3.654,3.654H32.229a3.653,3.653,0,0,0,3.654-3.654V6.654A3.653,3.653,0,0,0,32.229,3Zm0,3.654H32.229V32.229H6.654Zm5.077,2.4a2.235,2.235,0,0,0-2.5,2.194,2.181,2.181,0,0,0,2.348,2.191,2.232,2.232,0,0,0,2.5-2.191A2.184,2.184,0,0,0,11.731,9.058Zm-2.38,6.729V28.576h4.61V15.788Zm8.413,0V28.576h4.61v-6.99c0-2.081,1.484-2.38,1.93-2.38s1.638.447,1.638,2.38v6.99H30.4v-6.99c0-4.014-1.784-5.8-4.014-5.8s-3.42.743-4.014,1.784V15.788Z" transform="translate(-3 -3)"/>
</svg>
