<svg xmlns="http://www.w3.org/2000/svg" width="34.633" height="37.096" viewBox="0 0 34.633 37.096">
  <defs>
    <style>
      .cls-1 {
        fill: #bf0417;
      }
    </style>
  </defs>
  <g id="icon-github" transform="translate(-4404 -758.971)">
    <path id="Trazado_136" data-name="Trazado 136" class="cls-1" d="M4428.163,796.067a1.61,1.61,0,0,1-1.611-1.611v-6.234a3.915,3.915,0,0,0-1.06-3.083,1.61,1.61,0,0,1,.978-2.723c4.644-.516,8.941-2.047,8.941-9.674a7.116,7.116,0,0,0-1.973-4.93,1.611,1.611,0,0,1-.341-1.674,6.523,6.523,0,0,0,.223-3.862,13.393,13.393,0,0,0-4.261,2.075,1.61,1.61,0,0,1-1.318.217,19.926,19.926,0,0,0-10.433,0,1.623,1.623,0,0,1-1.318-.217,13.036,13.036,0,0,0-4.265-2.064,6.515,6.515,0,0,0,.228,3.851,1.611,1.611,0,0,1-.342,1.674,7.123,7.123,0,0,0-1.973,4.97c0,7.536,4.307,9.109,8.961,9.686a1.61,1.61,0,0,1,.959,2.718,3.824,3.824,0,0,0-1.064,2.923v1.409a1.5,1.5,0,0,1,0,.209l0,4.729a1.611,1.611,0,1,1-3.222,0v-2.814c-4.861.739-6.919-1.869-8.335-3.668-.626-.794-1.167-1.482-1.721-1.62a1.61,1.61,0,1,1,.781-3.124,6.635,6.635,0,0,1,3.471,2.751c1.347,1.711,2.438,3.1,5.8,2.4v-.154a6.73,6.73,0,0,1,.478-2.976c-4.539-1.035-9.337-3.816-9.337-12.455a10.312,10.312,0,0,1,2.22-6.462,9.726,9.726,0,0,1,.472-6.334,1.61,1.61,0,0,1,1.022-.909c.587-.177,2.783-.5,7.044,2.193a23.177,23.177,0,0,1,10.7,0c4.26-2.7,6.455-2.369,7.044-2.193a1.611,1.611,0,0,1,1.022.909,9.73,9.73,0,0,1,.472,6.334,10.32,10.32,0,0,1,2.22,6.413c0,9.143-5.556,11.674-9.325,12.495a7.026,7.026,0,0,1,.461,3.113l0,6.107A1.61,1.61,0,0,1,4428.163,796.067Z" transform="translate(0 0)"/>
  </g>
</svg>
