<svg xmlns="http://www.w3.org/2000/svg" width="16" height="24" viewBox="0 0 16 24"><defs><style>.a{fill:#e64a19;}.b{fill:#7c4dff;}.c{fill:#66bb6a;}.d{fill:#ff7043;}.e{fill:#29b6f6;}</style></defs><g transform="translate(-11 -3)"><path class="a" d="M19.571,11H15a4,4,0,0,1-4-4h0a4,4,0,0,1,4-4h4.571Z" transform="translate(0 0)"/><path class="b" d="M19,25H15a4,4,0,0,1-4-4h0a4,4,0,0,1,4-4h4Z" transform="translate(0 -6)"/><path class="c" d="M15,39h0a4,4,0,0,1-4-4h0a4,4,0,0,1,4-4h4v4A4,4,0,0,1,15,39Z" transform="translate(0 -12)"/><path class="d" d="M29,11H25V3h4a4,4,0,0,1,4,4h0A4,4,0,0,1,29,11Z" transform="translate(-6 0)"/><circle class="e" cx="3.931" cy="3.931" r="3.931" transform="translate(19.063 11.063)"/></g></svg>