<svg xmlns="http://www.w3.org/2000/svg" width="21.474" height="24" viewBox="0 0 21.474 24"><defs><style>.a{fill:#0277bd;}.b{fill:#039be5;}.c{fill:#fff;}.d{fill:#eee;}</style></defs><g transform="translate(-7 -5)"><path class="a" d="M28.474,5H7L8.895,26.474,17.737,29l8.842-2.526L28.474,5Z"/><path class="b" d="M24,8V27.659l7.97-1.972L33.749,8Z" transform="translate(-7.623 -0.865)"/><path class="c" d="M30.476,13H24v2.3h3.487l-.213,2.3H24v2.3h3.131l-.213,2.583-2.918.8v2.411l5.622-1.492.5-6.6h0Z" transform="translate(-6.76 -2.307)"/><path class="d" d="M21.347,13v2.3H15.013L14.8,13Zm-3.273,4.592.142,2.3h3.131v-2.3Zm.285,3.444H15.512l.213,3.157,5.622,1.492V23.275l-2.918-.8Z" transform="translate(-3.105 -2.307)"/></g></svg>