<svg xmlns="http://www.w3.org/2000/svg" xmlns:xlink="http://www.w3.org/1999/xlink" width="23.929" height="23.735" viewBox="0 0 23.929 23.735"><defs><style>.a{fill:url(#a);}.b{opacity:0.05;}.c{opacity:0.07;}.d{fill:url(#b);}.e{fill:url(#c);}</style><linearGradient id="a" x1="0.585" y1="0.035" x2="0.474" y2="0.641" gradientUnits="objectBoundingBox"><stop offset="0" stop-color="#80e81f"/><stop offset="0.339" stop-color="#67d326"/><stop offset="1" stop-color="#088242"/></linearGradient><linearGradient id="b" x1="0.487" y1="0.952" x2="0.501" y2="0.036" gradientUnits="objectBoundingBox"><stop offset="0" stop-color="#80e81f"/><stop offset="0.258" stop-color="#71df21"/><stop offset="1" stop-color="#05a333"/></linearGradient><linearGradient id="c" x1="0.658" y1="0.435" x2="0.433" y2="0.66" gradientUnits="objectBoundingBox"><stop offset="0.305" stop-color="#f5fcff"/><stop offset="0.704" stop-color="#d3e6d3"/><stop offset="0.865" stop-color="#a4cba5"/></linearGradient></defs><g transform="translate(-5.533 -6)"><path class="a" d="M21.824,29.735H13.912A7.912,7.912,0,0,1,6,21.824V13.912A7.912,7.912,0,0,1,13.912,6H29.735V21.824A7.912,7.912,0,0,1,21.824,29.735Z" transform="translate(-0.339 0)"/><rect class="b" width="23.929" height="4.126" transform="translate(5.533 19.074)"/><rect class="c" width="23.929" height="3.851" transform="translate(5.533 19.899)"/><path class="d" d="M21.824,37.23H13.912A7.912,7.912,0,0,1,6,29.319V28H29.735v1.319A7.912,7.912,0,0,1,21.824,37.23Z" transform="translate(-0.339 -7.495)"/><path class="b" d="M26.47,24.158h0l-.229-1.3L15.582,12.2a1.349,1.349,0,0,0-1.865,0l-2.331,2.331a1.318,1.318,0,0,0,0,1.865L22.048,27.061l5.083.85Z" transform="translate(-2.042 -1.986)"/><path class="c" d="M26.105,23.191,15.519,12.6a1.013,1.013,0,0,0-1.4,0l-2.331,2.331a.99.99,0,0,0,0,1.4L22.377,26.922l1.83.307h0l2.689.45Z" transform="translate(-2.212 -2.155)"/><path class="e" d="M26.381,25.854l.28,1.586-1.6-.267ZM12.193,16.266,22.706,26.778l1.558.26,1.978-1.978-.272-1.546L15.457,13a.659.659,0,0,0-.932,0l-2.331,2.331A.659.659,0,0,0,12.193,16.266Z" transform="translate(-2.383 -2.32)"/></g></svg>