<svg xmlns="http://www.w3.org/2000/svg" width="21.474" height="24" viewBox="0 0 21.474 24"><defs><style>.a{fill:#e65100;}.b{fill:#ff6d00;}.c{fill:#fff;}.d{fill:#eee;}</style></defs><g transform="translate(-7 -5)"><path class="a" d="M28.474,5H7L8.895,26.474,17.737,29l8.842-2.526L28.474,5Z" transform="translate(0 0)"/><path class="b" d="M24,8V27.449L32.355,25.5,34.22,8Z" transform="translate(-8.208 -0.762)"/><path class="c" d="M24,19.591v-2.2h6.416l-.522,6.316L24,25.138V22.832l3.059-.769.224-2.472H24ZM30.639,15.2l.224-2.2H24v2.2Z" transform="translate(-6.985 -2.032)"/><path class="d" d="M21.689,22.832v2.307L15.8,23.71l-.3-3.021h2.984l.149,1.373ZM18.033,15.2h3.655V13H14.9l.522,6.591h6.266v-2.2H18.257Z" transform="translate(-3.241 -2.032)"/></g></svg>