<svg xmlns="http://www.w3.org/2000/svg" width="37.057" height="29.111" viewBox="0 0 37.057 29.111">
  <defs>
    <style>
      .cls-1 {
        fill: #bf0417;
      }
    </style>
  </defs>
  <path id="icon-email" class="cls-1" d="M535.919,262.682H509.561a5.355,5.355,0,0,0-5.349,5.349v18.412a5.356,5.356,0,0,0,5.349,5.35h26.358a5.357,5.357,0,0,0,5.35-5.35V268.031A5.356,5.356,0,0,0,535.919,262.682Zm0,2.557a2.79,2.79,0,0,1,.636.076l-11.12,12.618a3.593,3.593,0,0,1-5.388,0l-11.12-12.618a2.788,2.788,0,0,1,.635-.076Zm2.793,21.2a2.8,2.8,0,0,1-2.793,2.793H509.561a2.8,2.8,0,0,1-2.793-2.793V268.031a2.788,2.788,0,0,1,.21-1.058l11.149,12.65a6.15,6.15,0,0,0,9.226,0l11.148-12.65a2.77,2.77,0,0,1,.21,1.058Z" transform="translate(-504.212 -262.682)"/>
</svg>
