<svg xmlns="http://www.w3.org/2000/svg" width="24" height="24" viewBox="0 0 24 24"><defs><style>.a{fill:#ffd600;}.b{fill:#000001;}</style></defs><g transform="translate(-6 -6)"><path class="a" d="M6,30V6H30V30Z" transform="translate(0 0)"/><path class="b" d="M24.641,29.173c.453.737.946,1.442,1.99,1.442.877,0,1.337-.436,1.337-1.039,0-.721-.476-.978-1.44-1.4L26,27.954c-1.526-.647-2.541-1.459-2.541-3.172A2.821,2.821,0,0,1,26.556,22a3.13,3.13,0,0,1,3.009,1.686L27.917,24.74a1.439,1.439,0,0,0-1.362-.9.919.919,0,0,0-1.012.9c0,.632.393.887,1.3,1.278l.529.225c1.8.766,2.813,1.548,2.813,3.307,0,1.9-1.5,2.934-3.506,2.934a3.866,3.866,0,0,1-3.7-2.207Zm-7.592.054a1.79,1.79,0,0,0,1.56,1.05c.693,0,1.092-.274,1.092-1.339V22h2.184v7.274a2.878,2.878,0,0,1-3.149,3.21,3.832,3.832,0,0,1-3.4-2.207Z" transform="translate(-2.807 -5.105)"/></g></svg>