<svg xmlns="http://www.w3.org/2000/svg" xmlns:xlink="http://www.w3.org/1999/xlink" width="24" height="13" viewBox="0 0 24 13"><defs><style>.a,.d,.e{fill:#fff;}.a{stroke:#707070;}.b{clip-path:url(#a);}.c{fill:#0303e5;stroke:#fff;}.c,.d,.f{stroke-width:0.5px;}.d,.e,.f,.g{stroke:rgba(0,0,0,0);}.f,.g{fill:red;}.h{stroke:none;}.i{fill:none;}</style><clipPath id="a"><rect class="a" width="24" height="13" transform="translate(1819 82)"/></clipPath></defs><g class="b" transform="translate(-1819 -82)"><g transform="translate(1817.238 80.5)"><g class="c" transform="translate(0.762 0.5)"><rect class="h" width="26" height="15"/><rect class="i" x="0.25" y="0.25" width="25.5" height="14.5"/></g><g class="d" transform="translate(0.762 5.5)"><rect class="h" width="26" height="5"/><rect class="i" x="0.25" y="0.25" width="25.5" height="4.5"/></g><g class="d" transform="translate(11.762 0.5)"><rect class="h" width="4" height="15"/><rect class="i" x="0.25" y="0.25" width="3.5" height="14.5"/></g><path class="e" d="M2024.567-123.758v-1.753h3.179l8.32,4.706v.464l-5.51-.041Z" transform="translate(-2023.705 125.981)"/><path class="e" d="M2319.156,39.115V40.8h-3.224l-8.275-4.536v-.454h5.465Z" transform="translate(-2292.531 -25.363)"/><path class="e" d="M2315.919-125.669h3.18v1.757l-6.022,3.356h-5.485v-.46Z" transform="translate(-2292.47 126.127)"/><path class="e" d="M2024.432,40.656h3.241l8.226-4.53v-.469h-5.457l-6.049,3.315v1.685Z" transform="translate(-2023.542 -25.222)"/><g class="f" transform="translate(0.762 6.5)"><rect class="h" width="26" height="3"/><rect class="i" x="0.25" y="0.25" width="25.5" height="2.5"/></g><g class="f" transform="translate(12.474)"><rect class="h" width="2.794" height="15"/><rect class="i" x="0.25" y="0.25" width="2.294" height="14.5"/></g><path class="g" d="M2024.567-125.162l7.144,4.059h1.929l-9.073-5.19Z" transform="translate(-2022.774 126.713)"/><path class="g" d="M.039,1.089,7.183,5H9.112L.039,0H0V1.068Z" transform="translate(25.694 15.434) rotate(180)"/><path class="g" d="M2025.782,40.7l2.05,0,9.118-5h-2.12Z" transform="translate(-2025.782 -25.263)"/><path class="g" d="M0,5.156l2.05,0L11.168,0H9.048Z" transform="translate(27.517 5.641) rotate(180)"/></g></g></svg>