<svg id="instagram" xmlns="http://www.w3.org/2000/svg" width="33.646" height="33.648" viewBox="0 0 33.646 33.648">
  <defs>
    <style>
      .cls-1 {
        fill: #bf0417;
      }
    </style>
  </defs>
  <g id="Grupo_26" data-name="Grupo 26">
    <path id="Trazado_97" data-name="Trazado 97" class="cls-1" d="M833.974,475.617a1.972,1.972,0,1,0,1.972,1.972A1.972,1.972,0,0,0,833.974,475.617Z" transform="translate(-808.242 -469.609)"/>
    <path id="Trazado_98" data-name="Trazado 98" class="cls-1" d="M830.988,477.176a8.286,8.286,0,1,0,8.287,8.286A8.3,8.3,0,0,0,830.988,477.176Zm0,13.593a5.308,5.308,0,1,1,5.307-5.308A5.313,5.313,0,0,1,830.988,490.769Z" transform="translate(-814.027 -468.639)"/>
    <path id="Trazado_99" data-name="Trazado 99" class="cls-1" d="M840.894,505.561H827.46a10.118,10.118,0,0,1-10.106-10.107V482.021a10.118,10.118,0,0,1,10.106-10.107h13.435A10.118,10.118,0,0,1,851,482.021v13.433A10.118,10.118,0,0,1,840.894,505.561ZM827.46,475.079a6.949,6.949,0,0,0-6.941,6.941v13.433a6.949,6.949,0,0,0,6.941,6.941h13.435a6.949,6.949,0,0,0,6.941-6.941V482.021a6.949,6.949,0,0,0-6.941-6.941Z" transform="translate(-817.354 -471.913)"/>
  </g>
</svg>
