<svg xmlns="http://www.w3.org/2000/svg" width="141.427" height="141.428" viewBox="0 0 141.427 141.428">
  <defs>
    <style>
      .cls-1 {
        fill: #161615;
        stroke: rgba(0,0,0,0);
        stroke-miterlimit: 10;
      }
    </style>
  </defs>
  <path id="marca" class="cls-1" d="M-541.652-153.413a69.992,69.992,0,0,1-20.565-49.648,69.992,69.992,0,0,1,20.565-49.649A69.99,69.99,0,0,1-492-273.275a69.991,69.991,0,0,1,49.649,20.565,69.992,69.992,0,0,1,20.564,49.649,69.992,69.992,0,0,1-20.564,49.648A70,70,0,0,1-492-132.847,70,70,0,0,1-541.652-153.413Zm1.43-97.866a67.973,67.973,0,0,0-19.972,48.217,67.979,67.979,0,0,0,19.972,48.218A67.981,67.981,0,0,0-492-134.87a67.982,67.982,0,0,0,48.219-19.973,67.982,67.982,0,0,0,19.971-48.218,67.976,67.976,0,0,0-19.971-48.217A67.978,67.978,0,0,0-492-271.252,67.977,67.977,0,0,0-540.222-251.279Zm47.365,111.239a2.529,2.529,0,0,1-.246-4.344c3.733-3,10.111,1.183,5.6,4.05a5.271,5.271,0,0,1-2.873.9A5.841,5.841,0,0,1-492.857-140.04Zm12.691-5.922c-1.911-1.134-3.756-2.395-5.731-3.4a8.9,8.9,0,0,0-8.627-.063c-6.51,3.481-11.245,7.377-18.457,2.078-3.811-2.8-3.588-10.24-.861-13.094,2.35-2.459,6.6-4.706,9.355-7.3,2.565-2.413,4.862-5.774,7.815-8.511,2.752-2.549,9.077-1.731,12.427-.488,2.686,1,4.344,3.167,6,5.411a52.034,52.034,0,0,0,6.985,7.84c3.173,2.863,6.18,3.76,7.186,8.779,1.18,5.89-4.115,10.4-10.065,10.4A11.755,11.755,0,0,1-480.166-145.962Zm-27.971-33.688-.595-1,41.311.446,1.3-2.352a28.961,28.961,0,0,1-7.533-10.722l1.193.46a30.739,30.739,0,0,0,6.914,9.666l.6.608-1.994,3.341Zm48.055-2.634c-4.441-1.734-5.384-8.934-3.245-15.288s7.217-10.62,12-8.135c6.545,3.4,5.193,9.049,2.522,15.251-2.224,5.166-5.489,8.6-9.084,8.6A6,6,0,0,1-460.083-182.284Zm-51.414-1.008,5.778-4.273.184-16.764a13.881,13.881,0,0,0-5.752,1.895l-.519-.8a13.706,13.706,0,0,1,6.281-2.017l.02-1.765a10.059,10.059,0,0,0-7.949,2.6q1.8-5.889,7.984-5.823l.176-16.061-5.682-4.563,40.254.435a37.126,37.126,0,0,0-6.847,11.411c-1.335-3.237-2.857-5.975-4.931-7.151-3.076-1.744-10.478-1.471-15.286-1.29l-.19,17.3,2.318.025.168-15.319c3.919-.3,9.651-.451,12.573.89a9.484,9.484,0,0,1,4.012,3.982c-.357-.247-.6-.441-.753-.57a18.727,18.727,0,0,0-4.411-2.912c-2.05-.709-7.1-.484-10.506-.356l-.157,14.3,6.992.076,4.98-6.622-.176,16.112-4.838-6.268-10.238-.11-.23,21.023,2.318.024.211-19.257,8.229.088.982.931-8.293-.089-.2,18.338q7.725.082,11.009-.969a9.179,9.179,0,0,0,5.159-4.229l2.519-4.218c1.247,5.605,2.9,8.242,7.1,12.457Zm-23.96-9.329c-2.1-6.391-1.083-13.972,2.865-15.212s9.026,2.048,11.166,8.4,1.8,12.834-2.637,14.567a6.8,6.8,0,0,1-2.485.476C-530.2-184.388-533.744-187.41-535.457-192.621Zm54.13-6.717.182-16.559.922.5-.183,16.559Zm31.482-8.573a1.819,1.819,0,0,1-1.185-2.406c.369-1.14,3.918-6.613,4.473-7.988,1,3.122-.823,7.9-1.251,9.049-.356.959-.9,1.4-1.6,1.4A2.012,2.012,0,0,1-449.844-207.91Zm-84.628-5.141c-.171-1.227-.92-6.345.748-9.209.247,1.48,2.552,7.66,2.666,8.868a1.839,1.839,0,0,1-1.7,2.115C-533.7-211.277-534.3-211.824-534.472-213.051ZM-476.138-218a44.662,44.662,0,0,1,6.647-10.57l.518.8-.274.328a44.148,44.148,0,0,0-6.256,10.24Zm-25.674-17.768c-5.965-.824-6.738-4.474-6.012-10.57.672-5.647,3.652-10.887,7.931-10.256,4.5.663,5.81,4.662,5.648,11.35-.156,6.457-.131,9.667-5.141,9.667A17.922,17.922,0,0,1-501.812-235.771Zm16.586-9.916c.256-6.686,1.81-10.6,6.344-10.977,4.308-.362,6.957,5.053,7.277,10.732.344,6.129-.655,9.725-6.66,10.174-.567.043-1.09.064-1.572.064C-485.723-235.694-485.486-238.883-485.226-245.687Zm-14.268-12.347c-.818-.459-1.049-1.2-.578-2.49s2.367-6.158,5.095-7.786c-1.239,3.219-1.736,7.638-2.063,9.169a1.5,1.5,0,0,1-1.5,1.365A1.988,1.988,0,0,1-499.494-258.035Zm17.922-1.345c-.231-1.549-.45-5.99-1.487-9.281,2.621,1.8,4.208,6.772,4.6,8.089s.112,2.043-.731,2.45a2.023,2.023,0,0,1-.863.2A1.5,1.5,0,0,1-481.572-259.38Z" transform="translate(562.717 273.775)"/>
</svg>
