<svg xmlns="http://www.w3.org/2000/svg" width="130.198" height="184.458" viewBox="0 0 130.198 184.458">
  <defs>
    <style>
      .cls-1 {
        fill: #161615;
      }
    </style>
  </defs>
  <path id="Trazado_312" data-name="Trazado 312" class="cls-1" d="M1458.815-583.121a42.671,42.671,0,0,1,8.1-27.729.374.374,0,0,0-.4-.583c-22.124,5.7-30.661,34.906-49.306,25.732-12.938-6.367-19.715-15.223-21.909-29.946-2.192-14.705,11.232-53.617,64.885-44.129a.03.03,0,0,0,.019-.056c-18.862-9.643-36.733-9.605-51.584-3.827-6.862-5.946-8.374-14.876-6.678-22.311,5.286-19.9,23.3-14.849,35.243-8.332,9.224,5.032,23.641.1,22.948-3.74a.053.053,0,0,0-.035-.041,18.846,18.846,0,0,1-11.788-11.546c-2.64-6.824-8.44-10.959-11.176-11.74.521-3.354,4.228-9.635,8.833-12.371a.264.264,0,0,0-.166-.489,36.639,36.639,0,0,0-19.932,9.427s-2.348-.247-3.131-.3c.834-5.269,4.693-9.952,7.633-12.308a.264.264,0,0,0-.219-.465c-6.355,1.356-16.031,7.079-20.925,14.525-25.276,7.736-37.308,43.3-11.6,65.329-22.449,14.548-34.529,42.861-26.105,65.279,19.419,51.677,73.859,42.365,92.82,28.184,19.723-14.75,9.767-37.154,34.532-55.64a.377.377,0,0,0-.224-.682c-13.761.2-37.431,13.834-39.808,37.756A.016.016,0,0,1,1458.815-583.121Z" transform="translate(-1368.834 737.878)"/>
</svg>
