<svg xmlns="http://www.w3.org/2000/svg" width="141.427" height="141.428" viewBox="0 0 141.427 141.428"><defs><style>.a{fill:#161615;stroke:rgba(0,0,0,0);stroke-miterlimit:10;}</style></defs><path class="a" d="M-541.653-153.413a69.988,69.988,0,0,1-20.564-49.648,69.992,69.992,0,0,1,20.564-49.648A69.988,69.988,0,0,1-492-273.275a69.988,69.988,0,0,1,49.649,20.566,69.993,69.993,0,0,1,20.565,49.648,69.989,69.989,0,0,1-20.565,49.648A70,70,0,0,1-492-132.847,70,70,0,0,1-541.653-153.413Zm1.431-97.866a67.974,67.974,0,0,0-19.972,48.218,67.977,67.977,0,0,0,19.972,48.217A67.978,67.978,0,0,0-492-134.87a67.982,67.982,0,0,0,48.219-19.973,67.977,67.977,0,0,0,19.972-48.217,67.974,67.974,0,0,0-19.972-48.218A67.978,67.978,0,0,0-492-271.252,67.974,67.974,0,0,0-540.221-251.279Zm60.055,105.317c-1.911-1.134-3.756-2.394-5.73-3.4a8.906,8.906,0,0,0-8.627-.063c-6.509,3.482-11.245,7.377-18.457,2.078-3.811-2.8-3.588-10.24-.86-13.094,2.35-2.459,6.6-4.705,9.354-7.3,2.566-2.413,4.862-5.774,7.816-8.51,2.751-2.55,9.077-1.732,12.427-.489,2.687,1,4.344,3.168,6,5.411a52.019,52.019,0,0,0,6.984,7.84c3.173,2.863,6.181,3.76,7.186,8.78,1.18,5.891-4.114,10.4-10.065,10.4A11.76,11.76,0,0,1-480.166-145.962Zm-27.97-33.688-.6-1,41.311.446,1.3-2.353a28.958,28.958,0,0,1-7.532-10.722l1.193.461a30.754,30.754,0,0,0,6.913,9.666l.6.608-1.994,3.342Zm48.054-2.634c-4.44-1.734-5.383-8.934-3.244-15.288s7.216-10.62,12-8.135c6.545,3.4,5.193,9.049,2.522,15.251-2.225,5.166-5.489,8.6-9.084,8.6A6,6,0,0,1-460.083-182.284Zm-51.414-1.008,5.778-4.273.184-16.764a13.881,13.881,0,0,0-5.753,1.895l-.518-.8a13.7,13.7,0,0,1,6.28-2.017l.02-1.765a10.059,10.059,0,0,0-7.949,2.6q1.8-5.889,7.984-5.822l.177-16.061-5.682-4.563,40.253.434a37.162,37.162,0,0,0-6.847,11.411c-1.334-3.237-2.857-5.975-4.931-7.151-3.076-1.744-10.478-1.471-15.286-1.29l-.19,17.3,2.318.025.169-15.319c3.919-.3,9.651-.451,12.572.89a9.477,9.477,0,0,1,4.012,3.982c-.357-.247-.6-.442-.753-.571a18.71,18.71,0,0,0-4.41-2.912c-2.05-.709-7.1-.484-10.507-.356l-.156,14.3,6.991.076,4.981-6.621-.177,16.112-4.838-6.268-10.237-.111-.229,21.023,2.317.024.211-19.257,8.229.088.982.931-8.293-.089-.2,18.337q7.726.082,11.009-.969a9.175,9.175,0,0,0,5.16-4.229l2.519-4.218c1.247,5.605,2.9,8.243,7.1,12.457Zm-23.959-9.328c-2.1-6.391-1.083-13.972,2.864-15.212s9.027,2.048,11.167,8.4,1.8,12.834-2.637,14.567a6.805,6.805,0,0,1-2.485.476C-530.2-184.388-533.743-187.41-535.456-192.621Zm54.13-6.716.182-16.56.922.5-.183,16.559Zm31.482-8.573a1.818,1.818,0,0,1-1.185-2.4c.369-1.141,3.917-6.613,4.472-7.989,1,3.122-.824,7.9-1.251,9.049-.356.958-.9,1.395-1.6,1.395A2.007,2.007,0,0,1-449.843-207.91Zm-84.629-5.141c-.171-1.227-.92-6.345.749-9.209.246,1.48,2.552,7.66,2.665,8.868a1.838,1.838,0,0,1-1.7,2.115C-533.7-211.277-534.3-211.824-534.472-213.051ZM-476.137-218a44.662,44.662,0,0,1,6.646-10.57l.519.8-.274.329a44.157,44.157,0,0,0-6.256,10.239Zm-25.674-17.767c-5.966-.824-6.739-4.475-6.013-10.57.672-5.648,3.653-10.888,7.932-10.257,4.5.663,5.81,4.662,5.648,11.35-.156,6.458-.131,9.668-5.141,9.668A17.92,17.92,0,0,1-501.811-235.77Zm16.586-9.917c.255-6.686,1.81-10.595,6.343-10.977,4.309-.362,6.958,5.054,7.277,10.732.345,6.129-.655,9.724-6.66,10.174-.568.043-1.091.064-1.574.064C-485.722-235.694-485.486-238.883-485.225-245.687Zm-14.269-12.347c-.817-.459-1.049-1.2-.577-2.49s2.366-6.157,5.095-7.786c-1.24,3.219-1.736,7.638-2.063,9.169a1.5,1.5,0,0,1-1.5,1.365A1.99,1.99,0,0,1-499.494-258.034Zm17.922-1.346c-.23-1.549-.449-5.99-1.486-9.281,2.62,1.8,4.207,6.772,4.6,8.089s.112,2.043-.731,2.45a2.023,2.023,0,0,1-.864.2A1.5,1.5,0,0,1-481.572-259.38Z" transform="translate(562.717 273.775)"/></svg>